<svg width="11" height="11" viewBox="0 0 11 11" fill="none" xmlns="http://www.w3.org/2000/svg">
<rect width="11" height="11" rx="2.5" fill="white" fill-opacity="0.4"/>
<path d="M2.73483 7.73483C2.58839 7.88128 2.58839 8.11872 2.73483 8.26517C2.88128 8.41161 3.11872 8.41161 3.26517 8.26517L2.73483 7.73483ZM8.375 3C8.375 2.79289 8.20711 2.625 8 2.625H4.625C4.41789 2.625 4.25 2.79289 4.25 3C4.25 3.20711 4.41789 3.375 4.625 3.375L7.625 3.375L7.625 6.375C7.625 6.58211 7.79289 6.75 8 6.75C8.20711 6.75 8.375 6.58211 8.375 6.375V3ZM3.26517 8.26517L8.26517 3.26516L7.73484 2.73483L2.73483 7.73483L3.26517 8.26517Z" fill="white"/>
</svg>
